<svg width="223" height="47" viewBox="0 0 223 47" fill="none" xmlns="http://www.w3.org/2000/svg">
<path d="M12.1835 3.344C14.0075 3.344 15.4795 3.52 16.5995 3.872C17.7515 4.192 18.8715 4.656 19.9595 5.264C20.3115 5.456 20.6155 5.616 20.8715 5.744C21.1595 5.872 21.3995 5.936 21.5915 5.936C21.8795 5.936 22.1035 5.776 22.2635 5.456C22.4235 5.104 22.5515 4.56 22.6475 3.824H23.7515C23.5915 6.128 23.5115 10.032 23.5115 15.536H22.4075C22.2795 13.712 21.8635 11.968 21.1595 10.304C20.4555 8.64 19.4955 7.28 18.2795 6.224C17.0635 5.168 15.6555 4.64 14.0555 4.64C12.5835 4.64 11.3995 5.04 10.5035 5.84C9.6075 6.608 9.1595 7.696 9.1595 9.104C9.1595 10.192 9.3995 11.136 9.8795 11.936C10.3595 12.736 11.0635 13.52 11.9915 14.288C12.9195 15.024 14.4395 16.128 16.5515 17.6C16.7435 17.696 16.9195 17.808 17.0795 17.936C17.2715 18.064 17.4475 18.192 17.6075 18.32C19.3675 19.536 20.7755 20.624 21.8315 21.584C22.8875 22.512 23.7355 23.6 24.3755 24.848C25.0475 26.096 25.3835 27.536 25.3835 29.168C25.3835 31.248 24.7915 33.008 23.6075 34.448C22.4555 35.856 20.8875 36.912 18.9035 37.616C16.9195 38.32 14.7275 38.672 12.3275 38.672C10.3755 38.672 8.7435 38.512 7.4315 38.192C6.1515 37.872 4.9515 37.44 3.8315 36.896C3.1275 36.448 2.5835 36.224 2.1995 36.224C1.9115 36.224 1.6875 36.4 1.5275 36.752C1.3675 37.072 1.2395 37.6 1.1435 38.336H0.0395001C0.1675 36.16 0.2315 31.52 0.2315 24.416H1.3355C1.5595 28.224 2.3595 31.312 3.7355 33.68C5.1115 36.048 7.2235 37.232 10.0715 37.232C11.8315 37.232 13.2235 36.816 14.2475 35.984C15.3035 35.152 15.8315 34 15.8315 32.528C15.8315 30.704 15.2555 29.152 14.1035 27.872C12.9835 26.56 11.2235 25.104 8.8235 23.504C6.9035 22.224 5.3675 21.104 4.2155 20.144C3.0635 19.184 2.1195 18.08 1.3835 16.832C0.6475 15.552 0.2795 14.08 0.2795 12.416C0.2795 10.4 0.8235 8.72 1.9115 7.376C2.9995 6 4.4395 4.992 6.2315 4.352C8.0555 3.68 10.0395 3.344 12.1835 3.344ZM38.8951 16.016C40.3351 13.616 42.8791 12.416 46.5271 12.416C49.0871 12.416 50.8951 13.056 51.9511 14.336C52.4311 14.912 52.7831 15.696 53.0071 16.688C53.2311 17.648 53.3431 18.928 53.3431 20.528V33.536C53.3431 34.848 53.5351 35.76 53.9191 36.272C54.3351 36.752 55.0391 36.992 56.0311 36.992V38C52.5751 37.872 50.3351 37.808 49.3111 37.808C48.2231 37.808 45.9511 37.872 42.4951 38V36.992C43.3271 36.992 43.9031 36.752 44.2231 36.272C44.5431 35.76 44.7031 34.848 44.7031 33.536V17.936C44.7031 16.912 44.5111 16.16 44.1271 15.68C43.7751 15.168 43.1831 14.912 42.3511 14.912C41.4231 14.912 40.6071 15.248 39.9031 15.92C39.2311 16.56 38.8951 17.376 38.8951 18.368V33.536C38.8951 34.848 39.0551 35.76 39.3751 36.272C39.6951 36.752 40.2711 36.992 41.1031 36.992V38C37.9031 37.872 35.7911 37.808 34.7671 37.808C33.6791 37.808 31.2791 37.872 27.5671 38V36.992C28.5591 36.992 29.2471 36.752 29.6311 36.272C30.0471 35.76 30.2551 34.848 30.2551 33.536V6.224C30.2551 4.752 30.0471 3.68 29.6311 3.008C29.2471 2.336 28.5591 2 27.5671 2V0.991999C28.5591 1.088 29.5511 1.136 30.5431 1.136C33.8711 1.136 36.6551 0.911999 38.8951 0.463997V16.016ZM70.3865 12.416C74.3225 12.416 77.3625 13.456 79.5065 15.536C81.6505 17.584 82.7225 20.928 82.7225 25.568C82.7225 30.208 81.6505 33.552 79.5065 35.6C77.3625 37.648 74.3225 38.672 70.3865 38.672C66.4505 38.672 63.4105 37.648 61.2665 35.6C59.1225 33.552 58.0505 30.208 58.0505 25.568C58.0505 20.928 59.1225 17.584 61.2665 15.536C63.4105 13.456 66.4505 12.416 70.3865 12.416ZM70.3865 13.376C69.3625 13.376 68.5465 14.384 67.9385 16.4C67.3305 18.416 67.0265 21.472 67.0265 25.568C67.0265 29.664 67.3305 32.72 67.9385 34.736C68.5465 36.72 69.3625 37.712 70.3865 37.712C71.4105 37.712 72.2265 36.72 72.8345 34.736C73.4425 32.72 73.7465 29.664 73.7465 25.568C73.7465 21.472 73.4425 18.416 72.8345 16.4C72.2265 14.384 71.4105 13.376 70.3865 13.376ZM103.707 12.416C106.203 12.416 108.219 13.44 109.755 15.488C111.291 17.536 112.059 20.528 112.059 24.464C112.059 29.552 111.035 33.2 108.987 35.408C106.939 37.584 104.235 38.672 100.875 38.672C99.0188 38.672 97.5308 38.368 96.4108 37.76V41.744C96.4108 43.216 96.7468 44.24 97.4188 44.816C98.1228 45.392 99.1628 45.68 100.539 45.68V46.688L99.1468 46.64C95.3068 46.544 92.8268 46.496 91.7068 46.496C90.7468 46.496 88.5388 46.56 85.0828 46.688V45.68C86.0748 45.68 86.7628 45.424 87.1468 44.912C87.5628 44.432 87.7708 43.536 87.7708 42.224V18.368C87.7708 16.896 87.5628 15.824 87.1468 15.152C86.7628 14.48 86.0748 14.144 85.0828 14.144V13.136C86.0748 13.232 87.0668 13.28 88.0588 13.28C91.3868 13.28 94.1708 13.056 96.4108 12.608V16.016C97.8828 13.616 100.315 12.416 103.707 12.416ZM98.0908 37.232C99.8508 37.232 101.115 36.288 101.883 34.4C102.683 32.48 103.083 29.536 103.083 25.568C103.083 21.632 102.795 18.88 102.219 17.312C101.643 15.712 100.859 14.912 99.8668 14.912C98.9388 14.912 98.1228 15.248 97.4188 15.92C96.7468 16.56 96.4108 17.376 96.4108 18.368V36.848C96.8268 37.104 97.3868 37.232 98.0908 37.232ZM120.377 30.416C121.913 30.416 123.081 30.768 123.881 31.472C124.713 32.176 125.129 33.2 125.129 34.544C125.129 35.888 124.713 36.912 123.881 37.616C123.081 38.32 121.913 38.672 120.377 38.672C118.841 38.672 117.657 38.32 116.825 37.616C116.025 36.912 115.625 35.888 115.625 34.544C115.625 33.2 116.025 32.176 116.825 31.472C117.657 30.768 118.841 30.416 120.377 30.416ZM140.932 12.416C142.244 12.416 143.444 12.56 144.532 12.848C145.652 13.104 146.564 13.44 147.268 13.856C148.164 14.368 148.868 15.056 149.38 15.92C149.892 16.784 150.148 17.76 150.148 18.848C150.148 20.192 149.716 21.312 148.852 22.208C147.988 23.072 146.884 23.504 145.54 23.504C144.164 23.504 143.076 23.12 142.276 22.352C141.508 21.552 141.124 20.496 141.124 19.184C141.124 18.032 141.492 17.024 142.228 16.16C142.996 15.264 143.94 14.672 145.06 14.384C144.58 14 143.94 13.808 143.14 13.808C141.092 13.808 139.652 14.912 138.82 17.12C137.988 19.296 137.572 21.888 137.572 24.896C137.572 27.968 138.148 30.16 139.3 31.472C140.452 32.784 141.876 33.44 143.572 33.44C145.908 33.44 147.844 32.368 149.38 30.224L150.196 30.512C149.492 32.752 148.292 34.672 146.596 36.272C144.932 37.872 142.788 38.672 140.164 38.672C136.676 38.672 133.876 37.632 131.764 35.552C129.652 33.472 128.596 30.144 128.596 25.568C128.596 21.184 129.716 17.904 131.956 15.728C134.228 13.52 137.22 12.416 140.932 12.416ZM165.121 12.416C169.057 12.416 172.097 13.456 174.241 15.536C176.385 17.584 177.457 20.928 177.457 25.568C177.457 30.208 176.385 33.552 174.241 35.6C172.097 37.648 169.057 38.672 165.121 38.672C161.185 38.672 158.145 37.648 156.001 35.6C153.857 33.552 152.785 30.208 152.785 25.568C152.785 20.928 153.857 17.584 156.001 15.536C158.145 13.456 161.185 12.416 165.121 12.416ZM165.121 13.376C164.097 13.376 163.281 14.384 162.673 16.4C162.065 18.416 161.761 21.472 161.761 25.568C161.761 29.664 162.065 32.72 162.673 34.736C163.281 36.72 164.097 37.712 165.121 37.712C166.145 37.712 166.961 36.72 167.569 34.736C168.177 32.72 168.481 29.664 168.481 25.568C168.481 21.472 168.177 18.416 167.569 16.4C166.961 14.384 166.145 13.376 165.121 13.376ZM219.705 33.536C219.705 34.848 219.897 35.76 220.281 36.272C220.697 36.752 221.401 36.992 222.393 36.992V38C218.937 37.872 216.697 37.808 215.673 37.808C214.649 37.808 212.537 37.872 209.337 38V36.992C209.977 36.992 210.425 36.752 210.681 36.272C210.937 35.792 211.065 34.88 211.065 33.536V17.936C211.065 16.912 210.873 16.16 210.489 15.68C210.137 15.168 209.545 14.912 208.713 14.912C207.881 14.912 207.113 15.264 206.409 15.968C205.737 16.672 205.321 17.504 205.161 18.464C205.225 19.232 205.257 19.92 205.257 20.528V33.536C205.257 34.88 205.417 35.792 205.737 36.272C206.057 36.752 206.633 36.992 207.465 36.992V38C204.265 37.872 202.185 37.808 201.225 37.808C200.201 37.808 198.089 37.872 194.889 38V36.992C195.529 36.992 195.977 36.752 196.233 36.272C196.489 35.76 196.617 34.848 196.617 33.536V17.936C196.617 16.912 196.473 16.16 196.185 15.68C195.897 15.168 195.417 14.912 194.745 14.912C193.817 14.912 193.001 15.248 192.297 15.92C191.625 16.56 191.289 17.376 191.289 18.368V33.536C191.289 34.88 191.417 35.792 191.673 36.272C191.929 36.752 192.377 36.992 193.017 36.992V38C190.073 37.872 188.121 37.808 187.161 37.808C186.073 37.808 183.673 37.872 179.961 38V36.992C180.953 36.992 181.641 36.752 182.025 36.272C182.441 35.76 182.649 34.848 182.649 33.536V18.32C182.649 16.848 182.441 15.776 182.025 15.104C181.641 14.432 180.953 14.096 179.961 14.096V13.088C180.985 13.184 181.977 13.232 182.937 13.232C186.265 13.232 189.049 13.008 191.289 12.56V16.016C192.633 13.616 195.017 12.416 198.441 12.416C201.001 12.416 202.809 13.056 203.865 14.336C204.345 14.912 204.697 15.664 204.921 16.592C205.721 15.056 206.777 13.984 208.089 13.376C209.433 12.736 211.033 12.416 212.889 12.416C215.449 12.416 217.257 13.056 218.313 14.336C218.793 14.912 219.145 15.696 219.369 16.688C219.593 17.648 219.705 18.928 219.705 20.528V33.536Z" fill="#322659"/>
</svg>
