<svg width="146" height="36" viewBox="0 0 146 36" fill="none" xmlns="http://www.w3.org/2000/svg">
<path d="M11.632 0.391999C13.296 0.391999 14.624 0.551999 15.616 0.871999C16.608 1.192 17.616 1.656 18.64 2.264C18.992 2.456 19.296 2.616 19.552 2.744C19.84 2.872 20.08 2.936 20.272 2.936C20.56 2.936 20.784 2.776 20.944 2.456C21.104 2.104 21.232 1.56 21.328 0.823999H22.432C22.272 2.968 22.192 6.616 22.192 11.768H21.088C20.96 10.04 20.56 8.392 19.888 6.824C19.248 5.256 18.32 3.992 17.104 3.032C15.92 2.04 14.528 1.544 12.928 1.544C11.36 1.544 10.08 1.992 9.088 2.888C8.128 3.752 7.648 4.936 7.648 6.44C7.648 7.56 7.888 8.536 8.368 9.368C8.848 10.2 9.52 10.968 10.384 11.672C11.248 12.344 12.576 13.272 14.368 14.456L15.904 15.512C17.792 16.76 19.28 17.848 20.368 18.776C21.456 19.704 22.336 20.792 23.008 22.04C23.712 23.256 24.064 24.68 24.064 26.312C24.064 28.36 23.536 30.088 22.48 31.496C21.424 32.872 19.984 33.912 18.16 34.616C16.368 35.32 14.368 35.672 12.16 35.672C10.368 35.672 8.88 35.512 7.696 35.192C6.512 34.872 5.424 34.44 4.432 33.896C3.728 33.448 3.184 33.224 2.8 33.224C2.512 33.224 2.288 33.4 2.128 33.752C1.968 34.072 1.84 34.6 1.744 35.336H0.64C0.768 33.32 0.832 29 0.832 22.376H1.936C2.16 25.96 2.96 28.872 4.336 31.112C5.712 33.32 7.824 34.424 10.672 34.424C12.4 34.424 13.824 33.96 14.944 33.032C16.064 32.104 16.624 30.776 16.624 29.048C16.624 27.256 16.048 25.72 14.896 24.44C13.744 23.16 11.92 21.72 9.424 20.12C7.504 18.872 5.968 17.784 4.816 16.856C3.664 15.928 2.72 14.84 1.984 13.592C1.248 12.312 0.88 10.84 0.88 9.176C0.88 7.256 1.36 5.64 2.32 4.328C3.312 2.984 4.624 1.992 6.256 1.352C7.888 0.711999 9.68 0.391999 11.632 0.391999ZM67.6473 1.976C66.5593 2.04 65.7753 2.168 65.2953 2.36C64.8153 2.552 64.4792 2.92 64.2873 3.464C64.1273 4.008 64.0473 4.888 64.0473 6.104V29.912C64.0473 31.128 64.1273 32.008 64.2873 32.552C64.4792 33.096 64.8153 33.464 65.2953 33.656C65.7753 33.848 66.5593 33.976 67.6473 34.04V35C66.0793 34.904 63.6473 34.856 60.3512 34.856C57.1192 34.856 54.6072 34.904 52.8153 35V34.04C53.8713 33.976 54.6393 33.848 55.1193 33.656C55.6313 33.464 55.9672 33.096 56.1272 32.552C56.3193 32.008 56.4153 31.128 56.4153 29.912V18.392H43.6952V29.912C43.6952 31.128 43.7752 32.008 43.9352 32.552C44.1272 33.096 44.4632 33.464 44.9432 33.656C45.4232 33.848 46.2073 33.976 47.2953 34.04V35C45.5672 34.904 43.1512 34.856 40.0472 34.856C36.6232 34.856 34.0952 34.904 32.4632 35V34.04C33.5192 33.976 34.2872 33.848 34.7672 33.656C35.2792 33.464 35.6152 33.096 35.7752 32.552C35.9672 32.008 36.0632 31.128 36.0632 29.912V6.104C36.0632 4.888 35.9672 4.008 35.7752 3.464C35.6152 2.92 35.2792 2.552 34.7672 2.36C34.2872 2.168 33.5192 2.04 32.4632 1.976V1.016C34.0952 1.112 36.6232 1.16 40.0472 1.16C43.1512 1.16 45.5672 1.112 47.2953 1.016V1.976C46.2073 2.04 45.4232 2.168 44.9432 2.36C44.4632 2.552 44.1272 2.92 43.9352 3.464C43.7752 4.008 43.6952 4.888 43.6952 6.104V17.432H56.4153V6.104C56.4153 4.888 56.3193 4.008 56.1272 3.464C55.9672 2.92 55.6313 2.552 55.1193 2.36C54.6393 2.168 53.8713 2.04 52.8153 1.976V1.016C54.6072 1.112 57.1192 1.16 60.3512 1.16C63.6473 1.16 66.0793 1.112 67.6473 1.016V1.976ZM92.7029 0.343997C96.0949 0.343997 99.0549 1.032 101.583 2.408C104.143 3.784 106.127 5.784 107.535 8.408C108.943 11 109.647 14.104 109.647 17.72C109.647 21.24 108.927 24.36 107.487 27.08C106.047 29.8 104.031 31.912 101.439 33.416C98.8789 34.92 95.9509 35.672 92.6549 35.672C89.2629 35.672 86.2869 34.984 83.7269 33.608C81.1989 32.232 79.2309 30.248 77.8229 27.656C76.4149 25.032 75.7109 21.912 75.7109 18.296C75.7109 14.776 76.4309 11.656 77.8709 8.936C79.3109 6.216 81.3109 4.104 83.8709 2.6C86.4629 1.096 89.4069 0.343997 92.7029 0.343997ZM92.5109 1.208C90.7509 1.208 89.1989 1.928 87.8549 3.368C86.5109 4.776 85.4709 6.76 84.7349 9.32C84.0309 11.88 83.6789 14.808 83.6789 18.104C83.6789 21.432 84.0789 24.36 84.8789 26.888C85.7109 29.416 86.8149 31.368 88.1909 32.744C89.5989 34.12 91.1509 34.808 92.8469 34.808C94.6069 34.808 96.1589 34.104 97.5029 32.696C98.8469 31.256 99.8709 29.256 100.575 26.696C101.311 24.136 101.679 21.208 101.679 17.912C101.679 14.584 101.263 11.656 100.431 9.128C99.6309 6.6 98.5269 4.648 97.1189 3.272C95.7429 1.896 94.2069 1.208 92.5109 1.208ZM128.998 21.272V29.624C128.998 30.904 129.126 31.848 129.382 32.456C129.67 33.032 130.15 33.416 130.822 33.608C131.526 33.8 132.63 33.912 134.134 33.944V35C130.198 34.904 127.27 34.856 125.35 34.856C123.75 34.856 121.734 34.888 119.302 34.952L117.766 35V34.04C118.822 33.976 119.59 33.848 120.07 33.656C120.582 33.464 120.918 33.096 121.078 32.552C121.27 32.008 121.366 31.128 121.366 29.912V6.104C121.366 4.888 121.27 4.008 121.078 3.464C120.918 2.92 120.582 2.552 120.07 2.36C119.59 2.168 118.822 2.04 117.766 1.976V1.016C119.398 1.112 121.83 1.16 125.062 1.16L130.39 1.112C131.03 1.08 131.766 1.064 132.598 1.064C136.918 1.064 140.214 1.928 142.486 3.656C144.758 5.352 145.894 7.64 145.894 10.52C145.894 12.28 145.446 13.976 144.55 15.608C143.654 17.208 142.134 18.552 139.99 19.64C137.878 20.728 135.062 21.272 131.542 21.272H128.998ZM131.974 1.976C131.11 1.976 130.47 2.088 130.054 2.312C129.67 2.536 129.398 2.936 129.238 3.512C129.078 4.088 128.998 4.952 128.998 6.104V20.312H131.062C133.654 20.312 135.446 19.48 136.438 17.816C137.43 16.152 137.926 13.896 137.926 11.048C137.926 7.944 137.462 5.656 136.534 4.184C135.638 2.712 134.118 1.976 131.974 1.976Z" fill="#322659"/>
</svg>
